HIERARCHY
ROOT Hips
{
	OFFSET -3.958830 18.904000 13.208200
	CHANNELS 6 Xposition Yposition Zposition Zrotation Yrotation Xrotation 
	JOINT LHipJoint
	{
		OFFSET 0.000000 0.000000 0.000000
		CHANNELS 3 Zrotation Yrotation Xrotation
		JOINT LeftUpLeg
		{
			OFFSET 1.800000 -1.400000 0.085000
			CHANNELS 3 Zrotation Yrotation Xrotation
			JOINT LeftLeg
			{
				OFFSET 2.215000 -6.000000 0.000000
				CHANNELS 3 Zrotation Yrotation Xrotation
				JOINT LeftFoot
				{
					OFFSET 2.500000 -6.900000 0.000000
					CHANNELS 3 Zrotation Yrotation Xrotation
					JOINT LeftToeBase
					{
						OFFSET 0.200000 -0.500000 1.950000
						CHANNELS 3 Zrotation Yrotation Xrotation
						End Site
						{
							OFFSET 0.000000 0.000000 0.000000
						}
					}
				}
			}
		}
	}
	JOINT RHipJoint
	{
		OFFSET 0.000000 0.000000 0.000000
		CHANNELS 3 Zrotation Yrotation Xrotation
		JOINT RightUpLeg
		{
			OFFSET -1.800000 -1.400000 0.085000
			CHANNELS 3 Zrotation Yrotation Xrotation
			JOINT RightLeg
			{
				OFFSET -2.215000 -6.000000 0.000000
				CHANNELS 3 Zrotation Yrotation Xrotation
				JOINT RightFoot
				{
					OFFSET -2.500000 -6.900000 0.000000
					CHANNELS 3 Zrotation Yrotation Xrotation
					JOINT RightToeBase
					{
						OFFSET -0.200000 -0.500000 1.950000
						CHANNELS 3 Zrotation Yrotation Xrotation
						End Site
						{
							OFFSET 0.000000 0.000000 0.000000
						}
					}
				}
			}
		}
	}
	JOINT LowerBack
	{
		OFFSET 0.000000 0.000000 0.000000
		CHANNELS 3 Zrotation Yrotation Xrotation
		JOINT Spine
		{
			OFFSET -0.087000 1.940000 -0.288900
			CHANNELS 3 Zrotation Yrotation Xrotation
			JOINT Spine1
			{
				OFFSET 0.000000 1.950000 0.060000
				CHANNELS 3 Zrotation Yrotation Xrotation
				JOINT Neck
				{
					OFFSET 0.000000 0.000000 0.000000
					CHANNELS 3 Zrotation Yrotation Xrotation
					JOINT Neck1
					{
						OFFSET 0.000000 1.600000 0.340000
						CHANNELS 3 Zrotation Yrotation Xrotation
						JOINT Head
						{
							OFFSET 0.000000 1.667000 -0.240000
							CHANNELS 3 Zrotation Yrotation Xrotation
							End Site
							{
								OFFSET 0.000000 0.000000 0.000000
							}
						}
					}
				}
				JOINT LeftShoulder
				{
					OFFSET 0.000000 0.000000 0.000000
					CHANNELS 3 Zrotation Yrotation Xrotation
					JOINT LeftArm
					{
						OFFSET 2.700000 1.550000 -0.730000
						CHANNELS 3 Zrotation Yrotation Xrotation
						JOINT LeftForeArm
						{
							OFFSET 5.450000 0.000000 0.000000
							CHANNELS 3 Zrotation Yrotation Xrotation
							JOINT LeftHand
							{
								OFFSET 3.450000 0.000000 0.000000
								CHANNELS 3 Zrotation Yrotation Xrotation
								JOINT LeftHandIndex1
								{
									OFFSET 0.750000 0.000000 0.000000
									CHANNELS 3 Zrotation Yrotation Xrotation
									End Site
									{
										OFFSET 0.000000 0.000000 0.000000
									}
								}
							}
						}
					}
				}
				JOINT RightShoulder
				{
					OFFSET 0.000000 0.000000 0.000000
					CHANNELS 3 Zrotation Yrotation Xrotation
					JOINT RightArm
					{
						OFFSET -2.700000 1.550000 -0.730000
						CHANNELS 3 Zrotation Yrotation Xrotation
						JOINT RightForeArm
						{
							OFFSET -5.450000 0.000000 0.000000
							CHANNELS 3 Zrotation Yrotation Xrotation
							JOINT RightHand
							{
								OFFSET -3.450000 0.000000 0.000000
								CHANNELS 3 Zrotation Yrotation Xrotation
								JOINT RightHandIndex1
								{
									OFFSET -0.750000 0.000000 0.000000
									CHANNELS 3 Zrotation Yrotation Xrotation
									End Site
									{
										OFFSET 0.000000 0.000000 0.000000
									}
								}
							}
						}
					}
				}
			}
		}
	}
}
MOTION
Frames: 4
Frame Time: 0.016667
-1.881590 16.914800 -3.814970 -87.536970 71.923192 -130.341132 -14.270322 14.573561 2.534182 14.095723 -6.324341 15.588413 7.925439 4.571006 37.872190 0.456599 7.784913 2.116910 -0.502570 -0.788960 -0.382460 18.785290 -11.492234 3.306413 7.678563 -4.789314 -8.490903 0.020872 -23.134411 72.616684 -2.308417 -12.585689 0.519929 -0.515800 0.340910 -0.250440 -3.712178 -0.235725 -7.309344 31.596267 -21.834788 51.515729 -14.598273 -8.050498 11.835602 -6.147135 5.755642 -20.191228 9.661226 -28.608578 40.417259 1.439170 -36.448210 17.675790 37.215689 -23.814180 10.394763 22.918954 25.137009 -9.791672 130.726206 -7.612783 -37.264346 -3.319060 4.649575 0.796140 -0.092830 -0.036210 0.164110 -30.173437 23.909530 18.086841 -27.060774 -25.765907 -15.204610 -137.666419 -15.017048 28.399098 4.821917 -1.135881 -0.629660 0.269770 0.081710 0.111240 
-1.899490 16.923650 -3.844050 -80.198539 69.685352 -121.839839 -14.263384 14.532527 2.210001 16.835086 -6.104354 13.814781 7.965250 4.936010 37.624045 0.423893 7.867715 2.091854 -0.515200 -0.834920 -0.416610 18.894756 -10.920728 3.570306 8.602442 -1.535131 -12.073175 2.858661 -26.381773 76.843324 -2.641456 -13.636507 0.223656 -0.551820 0.374540 -0.178810 -3.770297 0.138714 -7.583277 37.097100 -23.712104 49.032413 -16.814714 -7.144228 13.610567 -4.408969 5.941912 -19.590623 9.291545 -29.042025 40.316059 3.956400 -37.097630 12.263570 35.247293 -24.303122 10.689837 23.920327 20.944787 -11.836958 132.192014 -2.557167 -27.383240 -3.711736 4.507592 0.798660 -0.096230 -0.044080 0.148440 -30.712988 22.890798 16.965296 -27.766112 -23.513450 -15.031624 -138.144782 -14.688915 28.588460 4.669875 -1.141892 -0.584780 0.296680 0.188500 0.091630 
-1.924700 16.932340 -3.868260 -73.522787 67.696736 -113.508639 -14.316183 14.382242 1.867474 19.119610 -5.482904 11.646045 7.667197 5.499854 37.562157 0.390555 7.940092 2.057423 -0.516230 -0.832740 -0.454830 18.974007 -10.243135 3.881322 8.071445 2.562571 -16.838208 6.557341 -30.579447 81.101544 -3.005799 -14.912692 -0.092955 -0.550360 0.407860 -0.125610 -3.933548 0.711972 -7.958132 42.024705 -25.267747 46.621197 -19.365710 -6.112176 15.001663 -2.748953 6.232095 -19.082819 9.094074 -29.128617 40.292807 6.380360 -37.120080 7.155530 33.237894 -24.574124 10.582771 25.983893 16.381024 -12.692363 134.509144 2.175706 -17.393767 -3.942503 4.263562 0.794170 -0.087190 -0.037820 0.150430 -31.129704 21.882833 15.637338 -28.248487 -20.673113 -15.192851 -139.793790 -14.965070 29.921178 4.473890 -1.201361 -0.553800 0.332090 0.253880 0.090690 
-1.940900 16.939420 -3.888030 -69.949013 66.595118 -108.869370 -14.356131 14.176526 1.576889 20.243612 -4.613579 10.491462 7.661039 5.861115 37.250685 0.419971 7.955707 2.044561 -0.488160 -0.759620 -0.521430 19.050911 -9.664535 4.174926 5.274671 6.120969 -21.307830 10.296438 -35.274989 84.882682 -3.356598 -16.249945 -0.422534 -0.508990 0.460510 -0.043330 -4.127999 1.293987 -8.250366 45.568878 -25.846418 44.552856 -20.983543 -6.074396 17.240872 -1.248599 6.535752 -17.948975 9.156250 -28.946618 38.781639 9.398640 -37.000300 2.397780 31.064525 -24.935516 9.828550 28.637351 12.034202 -13.054785 136.946213 5.488137 -9.574246 -4.061911 4.117476 0.714390 -0.052650 -0.036220 0.186480 -30.869701 21.039886 14.237607 -28.421819 -17.933470 -15.563146 -140.824776 -13.840813 26.956939 4.311905 -1.396649 -0.479660 0.328680 0.286590 0.143850 
